<svg width="136" height="64" viewBox="0 0 136 64" fill="none" xmlns="http://www.w3.org/2000/svg">
<g clip-path="url(#clip0_111_54)">
<path d="M30.1604 63.5H5.09861C2.4973 63.5 0.399394 61.3822 0.428224 58.7912L0.647772 39.4367C0.661078 38.2054 1.15562 37.0824 1.95397 36.2556C3.01845 35.1524 4.44219 34.9292 5.09196 34.8385C9.68252 34.2063 24.5918 34.5865 32.5488 31.9801C38.5121 30.0259 45.9523 24.6119 46.0588 17.9091C46.1342 13.2158 42.6081 8.23296 38.1417 6.65233C28.9385 3.39599 17.1982 15.1524 16.1803 16.0234C9.79562 21.4794 7.13664 28.0141 3.39545 27.247C2.95192 27.1564 2.55496 26.9795 2.19792 26.7496C1.0403 26.0024 0.375 24.6849 0.375 23.3054V5.15569C0.375 2.58467 2.46625 0.5 5.04539 0.5H58.9035C61.4826 0.5 63.5739 2.58467 63.5739 5.15569V24.9568C63.5739 29.5417 61.7465 33.9388 58.4954 37.1796L33.4625 62.136C32.3625 62.5914 31.2603 63.0446 30.1604 63.5V63.5Z" fill="#0904FF"/>
<path d="M135.375 33.8083V58.789C135.375 61.3822 133.251 63.4735 130.652 63.4447L111.236 63.2259C110.001 63.2126 108.874 62.7196 108.045 61.9238C106.938 60.8627 106.714 59.4434 106.623 58.7957C105.876 53.4016 105.911 38.8067 103.756 31.4252C101.531 23.805 94.5613 15.6211 87.986 16.2577C83.4442 16.6977 79.5012 21.36 78.3502 25.8477C76.1836 34.2881 83.6726 42.9959 87.7509 47.7401C93.2241 54.1046 99.7795 56.7552 99.0099 60.4846C98.919 60.9268 98.7416 61.3225 98.511 61.6784C97.7614 62.8368 96.4375 63.5 95.0536 63.5H76.8467C74.2675 63.5 72.1763 61.4153 72.1763 58.8443V5.15569C72.1763 2.58467 74.2675 0.5 76.8467 0.5H101.957C103.197 0.5 104.383 0.990771 105.259 1.86399L134.005 30.5166C134.881 31.3899 135.373 32.5748 135.373 33.8083H135.375Z" fill="#0904FF"/>
</g>
<defs>
<clipPath id="clip0_111_54">
<rect width="135" height="63" fill="white" transform="translate(0.375 0.5)"/>
</clipPath>
</defs>
</svg>
